# xmcd
#
# Track frame offsets:
#	182
#	16085
#	29780
#	44982
#	61757
#	81252
#	100117
#	113542
#	126047
#	154292
#
# Disc length: 2490 seconds
#
# Revision: 0
# Processed by: cddbd v1.4PL0 Copyright (c) Steve Scherf et al.
# Submitted via: EasyCDDAExtractor 4.5.2.1
#
DISCID=7e09b80a
DTITLE=Hank Williams jr. - Hog wild
DYEAR=1995
DGENRE=Country
TTITLE0=hog wild
TTITLE1=i ain´t going peacefully
TTITLE2=between heaven and hell
TTITLE3=iron horse
TTITLE4=daytona nights
TTITLE5=tobacco road
TTITLE6=it´s a start
TTITLE7=greeted in enid
TTITLE8=eyes of waylon
TTITLE9=wild thing
EXTD=
EXTT0=
EXTT1=
EXTT2=
EXTT3=
EXTT4=
EXTT5=
EXTT6=
EXTT7=
EXTT8=
EXTT9=
PLAYORDER=
